<mxfile host="app.diagrams.net" modified="2022-05-27T11:25:01.510Z" agent="5.0 (X11; Linux x86_64) AppleWebKit/537.36 (KHTML, like Gecko) Chrome/100.0.4896.127 Safari/537.36" etag="kIKgtio7yt55GgM2uH4Q" version="18.1.3" type="github" pages="5">
  <diagram name="Page-1" id="97916047-d0de-89f5-080d-49f4d83e522f">
    <mxGraphModel dx="1364" dy="805" grid="1" gridSize="10" guides="1" tooltips="1" connect="1" arrows="1" fold="1" page="1" pageScale="1.5" pageWidth="1169" pageHeight="827" background="none" math="0" shadow="1">
      <root>
        <mxCell id="0" />
        <mxCell id="1" parent="0" />
        <mxCell id="5" value="Project ManagerÂ " style="rounded=1;fillColor=#10739E;strokeColor=none;shadow=1;gradientColor=none;fontStyle=1;fontColor=#FFFFFF;fontSize=14;" parent="1" vertex="1">
          <mxGeometry x="720" y="960" width="240" height="60" as="geometry" />
        </mxCell>
        <mxCell id="34" value="" style="edgeStyle=elbowEdgeStyle;elbow=vertical;strokeWidth=4;endArrow=block;endFill=1;fontStyle=1;strokeColor=#23445D;exitX=0.5;exitY=1;exitDx=0;exitDy=0;" parent="1" edge="1">
          <mxGeometry x="82" y="635.5" width="100" height="100" as="geometry">
            <mxPoint x="840" y="780" as="sourcePoint" />
            <mxPoint x="450" y="840" as="targetPoint" />
            <Array as="points">
              <mxPoint x="650" y="810" />
              <mxPoint x="610" y="820" />
              <mxPoint x="780" y="820" />
              <mxPoint x="710" y="830" />
              <mxPoint x="612" y="1025.5" />
            </Array>
          </mxGeometry>
        </mxCell>
        <mxCell id="50" value="" style="edgeStyle=elbowEdgeStyle;elbow=vertical;strokeWidth=4;endArrow=block;endFill=1;fontStyle=1;strokeColor=#23445D;entryX=0.5;entryY=0;entryDx=0;entryDy=0;" parent="1" edge="1">
          <mxGeometry x="82" y="665.5" width="100" height="100" as="geometry">
            <mxPoint x="1130" y="920" as="sourcePoint" />
            <mxPoint x="1390" y="980" as="targetPoint" />
            <Array as="points">
              <mxPoint x="1260" y="930" />
            </Array>
          </mxGeometry>
        </mxCell>
        <mxCell id="-oGhKgB42iq1yZTFwgwP-64" value="" style="edgeStyle=elbowEdgeStyle;elbow=vertical;strokeWidth=4;endArrow=block;endFill=1;fontStyle=1;dashed=1;strokeColor=#23445D;entryX=0.5;entryY=0;entryDx=0;entryDy=0;" parent="1" edge="1">
          <mxGeometry x="-78" y="940.5" width="100" height="100" as="geometry">
            <mxPoint x="840" y="800" as="sourcePoint" />
            <mxPoint x="1390" y="840" as="targetPoint" />
            <Array as="points">
              <mxPoint x="990" y="790" />
              <mxPoint x="1120" y="800" />
              <mxPoint x="1030" y="800" />
              <mxPoint x="1040" y="730" />
              <mxPoint x="1100" y="700" />
              <mxPoint x="910" y="800" />
              <mxPoint x="920" y="790" />
              <mxPoint x="1250" y="780" />
              <mxPoint x="1240" y="790" />
              <mxPoint x="1370" y="935" />
              <mxPoint x="1320" y="935" />
              <mxPoint x="1190" y="935" />
            </Array>
          </mxGeometry>
        </mxCell>
        <mxCell id="-oGhKgB42iq1yZTFwgwP-71" value="" style="edgeStyle=elbowEdgeStyle;elbow=vertical;strokeWidth=4;endArrow=block;endFill=1;fontStyle=1;strokeColor=#23445D;" parent="1" source="5" edge="1">
          <mxGeometry x="317" y="914.5" width="100" height="100" as="geometry">
            <mxPoint x="1010" y="1009.5" as="sourcePoint" />
            <mxPoint x="1290" y="1009.5" as="targetPoint" />
            <Array as="points">
              <mxPoint x="1140" y="1009.5" />
              <mxPoint x="1095" y="1009" />
              <mxPoint x="1075" y="1069" />
              <mxPoint x="1075" y="1059" />
              <mxPoint x="1075" y="1039" />
              <mxPoint x="1045" y="1079" />
              <mxPoint x="1105" y="1059" />
              <mxPoint x="1135" y="1069" />
              <mxPoint x="1045" y="1119" />
              <mxPoint x="1085" y="1159" />
              <mxPoint x="1085" y="1099" />
              <mxPoint x="1135" y="1039" />
              <mxPoint x="1237" y="1304.5" />
            </Array>
          </mxGeometry>
        </mxCell>
        <mxCell id="-oGhKgB42iq1yZTFwgwP-72" value="" style="rounded=1;whiteSpace=wrap;html=1;labelBackgroundColor=default;fontSize=16;fillColor=#d5e8d4;strokeColor=#82b366;" parent="1" vertex="1">
          <mxGeometry x="370" y="830" width="890" height="100" as="geometry" />
        </mxCell>
        <mxCell id="-oGhKgB42iq1yZTFwgwP-76" value="Basemap&#xa;Supervisor" style="rounded=1;fillColor=#10739E;strokeColor=none;shadow=1;gradientColor=none;fontStyle=1;fontColor=#FFFFFF;fontSize=14;" parent="1" vertex="1">
          <mxGeometry x="400" y="1110" width="200" height="60" as="geometry" />
        </mxCell>
        <mxCell id="-oGhKgB42iq1yZTFwgwP-80" value="" style="edgeStyle=elbowEdgeStyle;elbow=vertical;strokeWidth=4;endArrow=block;endFill=1;fontStyle=1;strokeColor=#23445D;" parent="1" target="-oGhKgB42iq1yZTFwgwP-76" edge="1">
          <mxGeometry x="522" y="1085.5" width="100" height="100" as="geometry">
            <mxPoint x="830" y="1070" as="sourcePoint" />
            <mxPoint x="430" y="1370" as="targetPoint" />
            <Array as="points">
              <mxPoint x="690" y="1070" />
              <mxPoint x="660" y="1070" />
              <mxPoint x="1450" y="1300" />
              <mxPoint x="1472" y="1475.5" />
            </Array>
          </mxGeometry>
        </mxCell>
        <mxCell id="-oGhKgB42iq1yZTFwgwP-83" value="" style="edgeStyle=elbowEdgeStyle;elbow=vertical;strokeWidth=4;endArrow=block;endFill=1;fontStyle=1;strokeColor=#23445D;entryX=0.5;entryY=0;entryDx=0;entryDy=0;exitX=0.7;exitY=1;exitDx=0;exitDy=0;exitPerimeter=0;" parent="1" target="-oGhKgB42iq1yZTFwgwP-85" edge="1">
          <mxGeometry x="652" y="655.5" width="100" height="100" as="geometry">
            <mxPoint x="1420" y="540" as="sourcePoint" />
            <mxPoint x="1360" y="660" as="targetPoint" />
            <Array as="points">
              <mxPoint x="1380" y="600" />
              <mxPoint x="1410" y="800" />
              <mxPoint x="1410" y="780" />
              <mxPoint x="1380" y="820" />
              <mxPoint x="1440" y="800" />
              <mxPoint x="1470" y="810" />
              <mxPoint x="1380" y="860" />
              <mxPoint x="1420" y="900" />
              <mxPoint x="1420" y="840" />
              <mxPoint x="1470" y="780" />
              <mxPoint x="1572" y="1045.5" />
            </Array>
          </mxGeometry>
        </mxCell>
        <mxCell id="-oGhKgB42iq1yZTFwgwP-93" value="" style="edgeStyle=elbowEdgeStyle;elbow=vertical;strokeWidth=4;endArrow=block;endFill=1;fontStyle=1;strokeColor=#23445D;exitX=0.25;exitY=1;exitDx=0;exitDy=0;entryX=0.5;entryY=0;entryDx=0;entryDy=0;" parent="1" source="-oGhKgB42iq1yZTFwgwP-76" edge="1">
          <mxGeometry x="167" y="1423" width="100" height="100" as="geometry">
            <mxPoint x="445" y="1227.5" as="sourcePoint" />
            <mxPoint x="500" y="1210" as="targetPoint" />
            <Array as="points">
              <mxPoint x="510" y="1180" />
              <mxPoint x="1095" y="1637.5" />
              <mxPoint x="1117" y="1813" />
            </Array>
          </mxGeometry>
        </mxCell>
        <mxCell id="-oGhKgB42iq1yZTFwgwP-94" value="" style="edgeStyle=elbowEdgeStyle;elbow=vertical;strokeWidth=4;endArrow=block;endFill=1;fontStyle=1;strokeColor=#23445D;exitX=0.25;exitY=1;exitDx=0;exitDy=0;entryX=0.5;entryY=0;entryDx=0;entryDy=0;" parent="1" edge="1">
          <mxGeometry x="392" y="1423" width="100" height="100" as="geometry">
            <mxPoint x="670" y="1170" as="sourcePoint" />
            <mxPoint x="730" y="1210" as="targetPoint" />
            <Array as="points">
              <mxPoint x="710" y="1180" />
              <mxPoint x="1320" y="1637.5" />
              <mxPoint x="1342" y="1813" />
            </Array>
          </mxGeometry>
        </mxCell>
        <mxCell id="-oGhKgB42iq1yZTFwgwP-95" value="" style="edgeStyle=elbowEdgeStyle;elbow=vertical;strokeWidth=4;endArrow=block;endFill=1;fontStyle=1;strokeColor=#23445D;exitX=0.25;exitY=1;exitDx=0;exitDy=0;entryX=0.5;entryY=0;entryDx=0;entryDy=0;" parent="1" edge="1">
          <mxGeometry x="609" y="1423" width="100" height="100" as="geometry">
            <mxPoint x="880" y="1170" as="sourcePoint" />
            <mxPoint x="950" y="1210" as="targetPoint" />
            <Array as="points">
              <mxPoint x="920" y="1180" />
              <mxPoint x="1537" y="1637.5" />
              <mxPoint x="1559" y="1813" />
            </Array>
          </mxGeometry>
        </mxCell>
        <mxCell id="-oGhKgB42iq1yZTFwgwP-97" value="" style="edgeStyle=elbowEdgeStyle;elbow=vertical;strokeWidth=4;endArrow=block;endFill=1;fontStyle=1;strokeColor=#23445D;exitX=0.22;exitY=1.033;exitDx=0;exitDy=0;exitPerimeter=0;entryX=0.5;entryY=0;entryDx=0;entryDy=0;" parent="1" edge="1">
          <mxGeometry x="1102" y="1423" width="100" height="100" as="geometry">
            <mxPoint x="1374" y="1151.98" as="sourcePoint" />
            <mxPoint x="1420" y="1210" as="targetPoint" />
            <Array as="points">
              <mxPoint x="1400" y="1180" />
              <mxPoint x="2030" y="1637.5" />
              <mxPoint x="2052" y="1813" />
            </Array>
          </mxGeometry>
        </mxCell>
        <mxCell id="-oGhKgB42iq1yZTFwgwP-108" value="" style="edgeStyle=elbowEdgeStyle;elbow=vertical;strokeWidth=4;endArrow=block;endFill=1;fontStyle=1;strokeColor=#23445D;" parent="1" edge="1">
          <mxGeometry x="502" y="1065.5" width="100" height="100" as="geometry">
            <mxPoint x="1310" y="1130" as="sourcePoint" />
            <mxPoint x="1260" y="1130" as="targetPoint" />
            <Array as="points">
              <mxPoint x="1290" y="1130" />
              <mxPoint x="1260" y="1220" />
              <mxPoint x="1260" y="1210" />
              <mxPoint x="1260" y="1190" />
              <mxPoint x="1230" y="1230" />
              <mxPoint x="1290" y="1210" />
              <mxPoint x="1320" y="1220" />
              <mxPoint x="1230" y="1270" />
              <mxPoint x="1270" y="1310" />
              <mxPoint x="1270" y="1250" />
              <mxPoint x="1320" y="1190" />
              <mxPoint x="1422" y="1455.5" />
            </Array>
          </mxGeometry>
        </mxCell>
        <mxCell id="-oGhKgB42iq1yZTFwgwP-109" value="" style="edgeStyle=elbowEdgeStyle;elbow=vertical;strokeWidth=4;endArrow=block;endFill=1;fontStyle=1;strokeColor=#23445D;" parent="1" edge="1">
          <mxGeometry x="512" y="1035.5" width="100" height="100" as="geometry">
            <mxPoint x="1280" y="1130" as="sourcePoint" />
            <mxPoint x="1330" y="1130" as="targetPoint" />
            <Array as="points">
              <mxPoint x="1290" y="1130" />
              <mxPoint x="1270" y="1190" />
              <mxPoint x="1270" y="1180" />
              <mxPoint x="1270" y="1160" />
              <mxPoint x="1240" y="1200" />
              <mxPoint x="1300" y="1180" />
              <mxPoint x="1330" y="1190" />
              <mxPoint x="1240" y="1240" />
              <mxPoint x="1280" y="1280" />
              <mxPoint x="1280" y="1220" />
              <mxPoint x="1330" y="1160" />
              <mxPoint x="1432" y="1425.5" />
            </Array>
          </mxGeometry>
        </mxCell>
        <mxCell id="9k9SJWvl5FccEw_qCoiV-60" value="" style="rounded=1;whiteSpace=wrap;html=1;labelBackgroundColor=default;fontSize=16;fillColor=#d5e8d4;strokeColor=#82b366;" parent="1" vertex="1">
          <mxGeometry x="330" y="800" width="1205" height="160" as="geometry" />
        </mxCell>
        <mxCell id="9k9SJWvl5FccEw_qCoiV-66" value="" style="edgeStyle=elbowEdgeStyle;elbow=vertical;strokeWidth=4;endArrow=block;endFill=1;fontStyle=1;strokeColor=#23445D;exitX=0.25;exitY=1;exitDx=0;exitDy=0;entryX=0.75;entryY=0;entryDx=0;entryDy=0;" parent="1" source="-oGhKgB42iq1yZTFwgwP-88" edge="1">
          <mxGeometry x="1317" y="773" width="100" height="100" as="geometry">
            <mxPoint x="1600" y="530" as="sourcePoint" />
            <mxPoint x="512.5" y="820" as="targetPoint" />
            <Array as="points">
              <mxPoint x="480" y="790" />
              <mxPoint x="2245" y="987.5" />
              <mxPoint x="2267" y="1163" />
            </Array>
          </mxGeometry>
        </mxCell>
        <mxCell id="9k9SJWvl5FccEw_qCoiV-67" value="" style="edgeStyle=elbowEdgeStyle;elbow=vertical;strokeWidth=4;endArrow=block;endFill=1;fontStyle=1;strokeColor=#23445D;exitX=0.25;exitY=1;exitDx=0;exitDy=0;entryX=0.75;entryY=0;entryDx=0;entryDy=0;" parent="1" source="-oGhKgB42iq1yZTFwgwP-89" edge="1">
          <mxGeometry x="2537" y="803" width="100" height="100" as="geometry">
            <mxPoint x="1660" y="820" as="sourcePoint" />
            <mxPoint x="745" y="817.5" as="targetPoint" />
            <Array as="points">
              <mxPoint x="710" y="790" />
              <mxPoint x="1200" y="810" />
              <mxPoint x="3465" y="1017.5" />
              <mxPoint x="3487" y="1193" />
            </Array>
          </mxGeometry>
        </mxCell>
        <mxCell id="9k9SJWvl5FccEw_qCoiV-68" value="" style="edgeStyle=elbowEdgeStyle;elbow=vertical;strokeWidth=4;endArrow=block;endFill=1;fontStyle=1;strokeColor=#23445D;exitX=0.25;exitY=1;exitDx=0;exitDy=0;entryX=0.75;entryY=0;entryDx=0;entryDy=0;" parent="1" source="-oGhKgB42iq1yZTFwgwP-90" edge="1">
          <mxGeometry x="3447" y="663" width="100" height="100" as="geometry">
            <mxPoint x="1570" y="650" as="sourcePoint" />
            <mxPoint x="975" y="817.5" as="targetPoint" />
            <Array as="points">
              <mxPoint x="950" y="790" />
              <mxPoint x="965" y="780" />
              <mxPoint x="1120" y="800" />
              <mxPoint x="2110" y="670" />
              <mxPoint x="4375" y="877.5" />
              <mxPoint x="4397" y="1053" />
            </Array>
          </mxGeometry>
        </mxCell>
      </root>
    </mxGraphModel>
  </diagram>
  <diagram id="sW1geXtu3QkKmL90fTVf" name="Page-2">
    <mxGraphModel dx="1364" dy="805" grid="1" gridSize="14" guides="1" tooltips="1" connect="1" arrows="1" fold="1" page="1" pageScale="1" pageWidth="1100" pageHeight="850" background="#ffffff" math="0" shadow="0">
      <root>
        <mxCell id="0" />
        <mxCell id="1" parent="0" />
        <mxCell id="iEAZW5QivC9z6IAEuazF-2" value="Project Manager " style="rounded=1;fillColor=#ffcc99;strokeColor=#36393d;shadow=1;fontStyle=1;fontSize=17;strokeWidth=2;" parent="1" vertex="1">
          <mxGeometry x="490" y="312" width="265" height="70" as="geometry" />
        </mxCell>
        <mxCell id="iEAZW5QivC9z6IAEuazF-4" value="Assistant &#xa;Project Manager " style="rounded=1;fillColor=#ffcc99;strokeColor=#36393d;shadow=1;fontStyle=1;fontSize=14;strokeWidth=2;" parent="1" vertex="1">
          <mxGeometry x="1030" y="392" width="170" height="50" as="geometry" />
        </mxCell>
        <mxCell id="iEAZW5QivC9z6IAEuazF-13" value="" style="edgeStyle=elbowEdgeStyle;elbow=vertical;strokeWidth=3;endArrow=block;endFill=1;fontStyle=1;strokeColor=#23445D;entryX=0.5;entryY=0;entryDx=0;entryDy=0;" parent="1" target="iEAZW5QivC9z6IAEuazF-4" edge="1">
          <mxGeometry x="47" y="344.5" width="100" height="100" as="geometry">
            <mxPoint x="756" y="359" as="sourcePoint" />
            <mxPoint x="1040" y="470" as="targetPoint" />
            <Array as="points">
              <mxPoint x="938" y="364" />
              <mxPoint x="805" y="499" />
              <mxPoint x="805" y="489" />
              <mxPoint x="805" y="469" />
              <mxPoint x="775" y="509" />
              <mxPoint x="835" y="489" />
              <mxPoint x="865" y="499" />
              <mxPoint x="775" y="549" />
              <mxPoint x="815" y="589" />
              <mxPoint x="815" y="529" />
              <mxPoint x="865" y="469" />
              <mxPoint x="967" y="734.5" />
            </Array>
          </mxGeometry>
        </mxCell>
        <mxCell id="iEAZW5QivC9z6IAEuazF-14" value="" style="rounded=1;whiteSpace=wrap;html=1;labelBackgroundColor=default;fontSize=16;fillColor=#d5e8d4;strokeColor=#82b366;gradientColor=none;strokeWidth=3;" parent="1" vertex="1">
          <mxGeometry x="80" y="511" width="1165" height="110" as="geometry" />
        </mxCell>
        <mxCell id="iEAZW5QivC9z6IAEuazF-24" value="Physical Addressing&#xa;Supervisor" style="rounded=1;fillColor=#ffcd28;strokeColor=#d79b00;shadow=1;fontStyle=1;fontSize=14;gradientColor=#ffa500;" parent="1" vertex="1">
          <mxGeometry x="1030" y="536" width="200" height="60" as="geometry" />
        </mxCell>
        <mxCell id="iEAZW5QivC9z6IAEuazF-37" value="" style="edgeStyle=elbowEdgeStyle;elbow=vertical;strokeWidth=3;endArrow=block;endFill=1;fontStyle=1;strokeColor=#23445D;exitX=0.463;exitY=1;exitDx=0;exitDy=0;exitPerimeter=0;entryX=0.5;entryY=0;entryDx=0;entryDy=0;" parent="1" source="iEAZW5QivC9z6IAEuazF-2" target="iEAZW5QivC9z6IAEuazF-24" edge="1">
          <mxGeometry x="469" y="450.5" width="100" height="100" as="geometry">
            <mxPoint x="570" y="490" as="sourcePoint" />
            <mxPoint x="1100" y="590" as="targetPoint" />
            <Array as="points">
              <mxPoint x="840" y="476" />
              <mxPoint x="860" y="520" />
              <mxPoint x="810" y="520" />
              <mxPoint x="930" y="510" />
              <mxPoint x="960" y="490" />
              <mxPoint x="860" y="480" />
              <mxPoint x="1140" y="500" />
              <mxPoint x="870" y="500" />
              <mxPoint x="687" y="525" />
              <mxPoint x="697" y="525" />
              <mxPoint x="1397" y="665" />
              <mxPoint x="1419" y="840.5" />
            </Array>
          </mxGeometry>
        </mxCell>
        <mxCell id="6m8-zw5Bx2EqO2fbQ1Oj-1" value="" style="rounded=1;whiteSpace=wrap;html=1;labelBackgroundColor=default;fontSize=16;fillColor=#CCCCCC;strokeColor=#56517e;strokeWidth=2;" parent="1" vertex="1">
          <mxGeometry x="80" y="641" width="1165" height="100" as="geometry" />
        </mxCell>
        <mxCell id="6m8-zw5Bx2EqO2fbQ1Oj-2" value="Basemap Production&#xa; Team" style="rounded=1;fillColor=#579187;strokeColor=none;shadow=1;gradientColor=none;fontStyle=1;fontColor=#FFFFFF;fontSize=14;" parent="1" vertex="1">
          <mxGeometry x="100" y="656" width="200" height="70" as="geometry" />
        </mxCell>
        <mxCell id="6m8-zw5Bx2EqO2fbQ1Oj-3" value="Road Network&#xa;Team" style="rounded=1;fillColor=#579187;strokeColor=none;shadow=1;gradientColor=none;fontStyle=1;fontColor=#FFFFFF;fontSize=14;" parent="1" vertex="1">
          <mxGeometry x="330" y="656" width="210" height="70" as="geometry" />
        </mxCell>
        <mxCell id="6m8-zw5Bx2EqO2fbQ1Oj-4" value="System Development&#xa;Team" style="rounded=1;fillColor=#579187;strokeColor=none;shadow=1;gradientColor=none;fontStyle=1;fontColor=#FFFFFF;fontSize=14;" parent="1" vertex="1">
          <mxGeometry x="557.5" y="656" width="210" height="70" as="geometry" />
        </mxCell>
        <mxCell id="6m8-zw5Bx2EqO2fbQ1Oj-5" value="Standard and Legal&#xa;Team" style="rounded=1;fillColor=#579187;strokeColor=none;shadow=1;gradientColor=none;fontStyle=1;fontColor=#FFFFFF;fontSize=14;" parent="1" vertex="1">
          <mxGeometry x="790" y="656" width="210" height="70" as="geometry" />
        </mxCell>
        <mxCell id="6m8-zw5Bx2EqO2fbQ1Oj-6" value="Signpost &#xa;Team" style="rounded=1;fillColor=#579187;strokeColor=none;shadow=1;gradientColor=none;fontStyle=1;fontColor=#FFFFFF;fontSize=14;" parent="1" vertex="1">
          <mxGeometry x="1035" y="656" width="190" height="70" as="geometry" />
        </mxCell>
        <mxCell id="6m8-zw5Bx2EqO2fbQ1Oj-10" value="" style="edgeStyle=elbowEdgeStyle;elbow=vertical;strokeWidth=3;endArrow=block;endFill=1;fontStyle=1;strokeColor=#23445D;" parent="1" edge="1">
          <mxGeometry x="212" y="471" width="100" height="100" as="geometry">
            <mxPoint x="980" y="565.5" as="sourcePoint" />
            <mxPoint x="1030" y="565.5" as="targetPoint" />
            <Array as="points">
              <mxPoint x="990" y="565.5" />
              <mxPoint x="970" y="625.5" />
              <mxPoint x="970" y="615.5" />
              <mxPoint x="970" y="595.5" />
              <mxPoint x="940" y="635.5" />
              <mxPoint x="1000" y="615.5" />
              <mxPoint x="1030" y="625.5" />
              <mxPoint x="940" y="675.5" />
              <mxPoint x="980" y="715.5" />
              <mxPoint x="980" y="655.5" />
              <mxPoint x="1030" y="595.5" />
              <mxPoint x="1132" y="861" />
            </Array>
          </mxGeometry>
        </mxCell>
        <mxCell id="6m8-zw5Bx2EqO2fbQ1Oj-11" value="" style="edgeStyle=elbowEdgeStyle;elbow=vertical;strokeWidth=3;endArrow=block;endFill=1;fontStyle=1;strokeColor=#23445D;" parent="1" edge="1">
          <mxGeometry x="212" y="501" width="100" height="100" as="geometry">
            <mxPoint x="1020" y="565.5" as="sourcePoint" />
            <mxPoint x="970" y="565.5" as="targetPoint" />
            <Array as="points">
              <mxPoint x="1000" y="565.5" />
              <mxPoint x="970" y="655.5" />
              <mxPoint x="970" y="645.5" />
              <mxPoint x="970" y="625.5" />
              <mxPoint x="940" y="665.5" />
              <mxPoint x="1000" y="645.5" />
              <mxPoint x="1030" y="655.5" />
              <mxPoint x="940" y="705.5" />
              <mxPoint x="980" y="745.5" />
              <mxPoint x="980" y="685.5" />
              <mxPoint x="1030" y="625.5" />
              <mxPoint x="1132" y="891" />
            </Array>
          </mxGeometry>
        </mxCell>
        <mxCell id="6m8-zw5Bx2EqO2fbQ1Oj-13" value="" style="rounded=1;whiteSpace=wrap;html=1;labelBackgroundColor=default;fontSize=16;fillColor=#579187;strokeColor=#36393d;strokeWidth=2;" parent="1" vertex="1">
          <mxGeometry x="90" y="526" width="882.5" height="80" as="geometry" />
        </mxCell>
        <mxCell id="6m8-zw5Bx2EqO2fbQ1Oj-14" value="Basemap&#xa;Supervisor" style="rounded=1;fillColor=#ffcd28;strokeColor=#d79b00;shadow=1;fontStyle=1;fontSize=14;strokeWidth=0;perimeterSpacing=0;gradientColor=#ffa500;" parent="1" vertex="1">
          <mxGeometry x="100" y="536" width="200" height="60" as="geometry" />
        </mxCell>
        <mxCell id="6m8-zw5Bx2EqO2fbQ1Oj-15" value="Road Network Analysis &#xa;Supervisor" style="rounded=1;fillColor=#ffcd28;strokeColor=#d79b00;shadow=1;fontStyle=1;fontSize=14;gradientColor=#ffa500;" parent="1" vertex="1">
          <mxGeometry x="320" y="536" width="200" height="60" as="geometry" />
        </mxCell>
        <mxCell id="6m8-zw5Bx2EqO2fbQ1Oj-16" value="System Development&#xa;Supervisor" style="rounded=1;fillColor=#ffcd28;strokeColor=#d79b00;shadow=1;fontStyle=1;fontSize=14;gradientColor=#ffa500;" parent="1" vertex="1">
          <mxGeometry x="540" y="536" width="200" height="60" as="geometry" />
        </mxCell>
        <mxCell id="6m8-zw5Bx2EqO2fbQ1Oj-17" value="Standard and Legal&#xa;Supervisor" style="rounded=1;fillColor=#ffcd28;strokeColor=#d79b00;shadow=1;fontStyle=1;fontSize=14;gradientColor=#ffa500;" parent="1" vertex="1">
          <mxGeometry x="760" y="536" width="200" height="60" as="geometry" />
        </mxCell>
        <mxCell id="6m8-zw5Bx2EqO2fbQ1Oj-18" value="" style="edgeStyle=elbowEdgeStyle;elbow=vertical;strokeWidth=3;endArrow=block;endFill=1;fontStyle=1;strokeColor=#23445D;entryX=0.5;entryY=0;entryDx=0;entryDy=0;" parent="1" source="iEAZW5QivC9z6IAEuazF-4" target="iEAZW5QivC9z6IAEuazF-24" edge="1">
          <mxGeometry x="172" y="575.5" width="100" height="100" as="geometry">
            <mxPoint x="940" y="670" as="sourcePoint" />
            <mxPoint x="1130" y="670" as="targetPoint" />
            <Array as="points">
              <mxPoint x="1130" y="530" />
              <mxPoint x="950" y="670" />
              <mxPoint x="930" y="730" />
              <mxPoint x="930" y="720" />
              <mxPoint x="930" y="700" />
              <mxPoint x="900" y="740" />
              <mxPoint x="960" y="720" />
              <mxPoint x="990" y="730" />
              <mxPoint x="900" y="780" />
              <mxPoint x="940" y="820" />
              <mxPoint x="940" y="760" />
              <mxPoint x="990" y="700" />
              <mxPoint x="1092" y="965.5" />
            </Array>
          </mxGeometry>
        </mxCell>
        <mxCell id="6m8-zw5Bx2EqO2fbQ1Oj-21" value="" style="edgeStyle=elbowEdgeStyle;elbow=vertical;strokeWidth=3;endArrow=block;endFill=1;fontStyle=1;strokeColor=#23445D;entryX=0.555;entryY=0.033;entryDx=0;entryDy=0;entryPerimeter=0;exitX=0.46;exitY=0.986;exitDx=0;exitDy=0;exitPerimeter=0;" parent="1" source="iEAZW5QivC9z6IAEuazF-2" target="6m8-zw5Bx2EqO2fbQ1Oj-17" edge="1">
          <mxGeometry x="504.4200000000001" y="485.5" width="100" height="100" as="geometry">
            <mxPoint x="570" y="460" as="sourcePoint" />
            <mxPoint x="870.4200000000001" y="576.02" as="targetPoint" />
            <Array as="points">
              <mxPoint x="714" y="476" />
              <mxPoint x="722.4200000000001" y="550" />
              <mxPoint x="722.4200000000001" y="500" />
              <mxPoint x="1432.42" y="700" />
              <mxPoint x="1454.42" y="875.5" />
            </Array>
          </mxGeometry>
        </mxCell>
        <mxCell id="6m8-zw5Bx2EqO2fbQ1Oj-22" value="" style="edgeStyle=elbowEdgeStyle;elbow=vertical;strokeWidth=3;endArrow=block;endFill=1;fontStyle=1;strokeColor=#23445D;exitX=0.25;exitY=1;exitDx=0;exitDy=0;entryX=0.5;entryY=0;entryDx=0;entryDy=0;" parent="1" source="6m8-zw5Bx2EqO2fbQ1Oj-15" target="6m8-zw5Bx2EqO2fbQ1Oj-3" edge="1">
          <mxGeometry x="-353" y="476.5" width="100" height="100" as="geometry">
            <mxPoint x="360" y="596" as="sourcePoint" />
            <mxPoint x="410" y="656" as="targetPoint" />
            <Array as="points">
              <mxPoint x="400" y="631" />
              <mxPoint x="250" y="691" />
              <mxPoint x="445" y="731" />
              <mxPoint x="405" y="631" />
              <mxPoint x="405" y="621" />
              <mxPoint x="405" y="601" />
              <mxPoint x="375" y="641" />
              <mxPoint x="435" y="621" />
              <mxPoint x="465" y="631" />
              <mxPoint x="375" y="681" />
              <mxPoint x="415" y="721" />
              <mxPoint x="415" y="661" />
              <mxPoint x="465" y="601" />
              <mxPoint x="567" y="866.5" />
            </Array>
          </mxGeometry>
        </mxCell>
        <mxCell id="6m8-zw5Bx2EqO2fbQ1Oj-23" value="" style="edgeStyle=elbowEdgeStyle;elbow=vertical;strokeWidth=3;endArrow=block;endFill=1;fontStyle=1;strokeColor=#23445D;exitX=0.25;exitY=1;exitDx=0;exitDy=0;entryX=0.5;entryY=0;entryDx=0;entryDy=0;" parent="1" source="6m8-zw5Bx2EqO2fbQ1Oj-16" target="6m8-zw5Bx2EqO2fbQ1Oj-4" edge="1">
          <mxGeometry x="-133" y="476.5" width="100" height="100" as="geometry">
            <mxPoint x="580" y="596" as="sourcePoint" />
            <mxPoint x="630" y="656" as="targetPoint" />
            <Array as="points">
              <mxPoint x="600" y="631" />
              <mxPoint x="470" y="691" />
              <mxPoint x="665" y="731" />
              <mxPoint x="625" y="631" />
              <mxPoint x="625" y="621" />
              <mxPoint x="625" y="601" />
              <mxPoint x="595" y="641" />
              <mxPoint x="655" y="621" />
              <mxPoint x="685" y="631" />
              <mxPoint x="595" y="681" />
              <mxPoint x="635" y="721" />
              <mxPoint x="635" y="661" />
              <mxPoint x="685" y="601" />
              <mxPoint x="787" y="866.5" />
            </Array>
          </mxGeometry>
        </mxCell>
        <mxCell id="6m8-zw5Bx2EqO2fbQ1Oj-24" value="" style="edgeStyle=elbowEdgeStyle;elbow=vertical;strokeWidth=3;endArrow=block;endFill=1;fontStyle=1;strokeColor=#23445D;exitX=0.25;exitY=1;exitDx=0;exitDy=0;entryX=0.5;entryY=0;entryDx=0;entryDy=0;" parent="1" source="6m8-zw5Bx2EqO2fbQ1Oj-17" target="6m8-zw5Bx2EqO2fbQ1Oj-5" edge="1">
          <mxGeometry x="97" y="476.5" width="100" height="100" as="geometry">
            <mxPoint x="810" y="596" as="sourcePoint" />
            <mxPoint x="860" y="656" as="targetPoint" />
            <Array as="points">
              <mxPoint x="850" y="631" />
              <mxPoint x="700" y="691" />
              <mxPoint x="895" y="731" />
              <mxPoint x="855" y="631" />
              <mxPoint x="855" y="621" />
              <mxPoint x="855" y="601" />
              <mxPoint x="825" y="641" />
              <mxPoint x="885" y="621" />
              <mxPoint x="915" y="631" />
              <mxPoint x="825" y="681" />
              <mxPoint x="865" y="721" />
              <mxPoint x="865" y="661" />
              <mxPoint x="915" y="601" />
              <mxPoint x="1017" y="866.5" />
            </Array>
          </mxGeometry>
        </mxCell>
        <mxCell id="6m8-zw5Bx2EqO2fbQ1Oj-25" value="" style="edgeStyle=elbowEdgeStyle;elbow=vertical;strokeWidth=3;endArrow=block;endFill=1;fontStyle=1;strokeColor=#23445D;exitX=0.25;exitY=1;exitDx=0;exitDy=0;entryX=0.5;entryY=0;entryDx=0;entryDy=0;" parent="1" source="iEAZW5QivC9z6IAEuazF-24" target="6m8-zw5Bx2EqO2fbQ1Oj-6" edge="1">
          <mxGeometry x="367" y="476.5" width="100" height="100" as="geometry">
            <mxPoint x="1080" y="596" as="sourcePoint" />
            <mxPoint x="1130" y="656" as="targetPoint" />
            <Array as="points">
              <mxPoint x="1120" y="631" />
              <mxPoint x="970" y="691" />
              <mxPoint x="1165" y="731" />
              <mxPoint x="1125" y="631" />
              <mxPoint x="1125" y="621" />
              <mxPoint x="1125" y="601" />
              <mxPoint x="1095" y="641" />
              <mxPoint x="1155" y="621" />
              <mxPoint x="1185" y="631" />
              <mxPoint x="1095" y="681" />
              <mxPoint x="1135" y="721" />
              <mxPoint x="1135" y="661" />
              <mxPoint x="1185" y="601" />
              <mxPoint x="1287" y="866.5" />
            </Array>
          </mxGeometry>
        </mxCell>
        <mxCell id="6m8-zw5Bx2EqO2fbQ1Oj-26" value="" style="edgeStyle=elbowEdgeStyle;elbow=vertical;strokeWidth=3;endArrow=block;endFill=1;fontStyle=1;strokeColor=#23445D;entryX=0.5;entryY=0;entryDx=0;entryDy=0;" parent="1" target="6m8-zw5Bx2EqO2fbQ1Oj-15" edge="1">
          <mxGeometry x="-373" y="382.5" width="100" height="100" as="geometry">
            <mxPoint x="336" y="476" as="sourcePoint" />
            <mxPoint x="390" y="567" as="targetPoint" />
            <Array as="points">
              <mxPoint x="378" y="476" />
              <mxPoint x="400" y="487" />
              <mxPoint x="230" y="597" />
              <mxPoint x="425" y="637" />
              <mxPoint x="385" y="537" />
              <mxPoint x="385" y="527" />
              <mxPoint x="385" y="507" />
              <mxPoint x="355" y="547" />
              <mxPoint x="415" y="527" />
              <mxPoint x="445" y="537" />
              <mxPoint x="355" y="587" />
              <mxPoint x="395" y="627" />
              <mxPoint x="395" y="567" />
              <mxPoint x="445" y="507" />
              <mxPoint x="547" y="772.5" />
            </Array>
          </mxGeometry>
        </mxCell>
        <mxCell id="6m8-zw5Bx2EqO2fbQ1Oj-27" value="" style="edgeStyle=elbowEdgeStyle;elbow=vertical;strokeWidth=3;endArrow=block;endFill=1;fontStyle=1;strokeColor=#23445D;entryX=0.5;entryY=0;entryDx=0;entryDy=0;exitX=0.457;exitY=0.986;exitDx=0;exitDy=0;exitPerimeter=0;" parent="1" source="iEAZW5QivC9z6IAEuazF-2" target="6m8-zw5Bx2EqO2fbQ1Oj-14" edge="1">
          <mxGeometry x="252" y="495.5" width="100" height="100" as="geometry">
            <mxPoint x="574" y="392" as="sourcePoint" />
            <mxPoint x="200" y="555" as="targetPoint" />
            <Array as="points">
              <mxPoint x="392" y="476" />
              <mxPoint x="420" y="480" />
              <mxPoint x="390" y="480" />
              <mxPoint x="1180" y="710" />
              <mxPoint x="1202" y="885.5" />
            </Array>
          </mxGeometry>
        </mxCell>
        <mxCell id="6m8-zw5Bx2EqO2fbQ1Oj-28" value="" style="edgeStyle=elbowEdgeStyle;elbow=vertical;strokeWidth=3;endArrow=block;endFill=1;fontStyle=1;strokeColor=#23445D;entryX=0.5;entryY=0;entryDx=0;entryDy=0;exitX=0.25;exitY=1;exitDx=0;exitDy=0;" parent="1" source="6m8-zw5Bx2EqO2fbQ1Oj-14" target="6m8-zw5Bx2EqO2fbQ1Oj-2" edge="1">
          <mxGeometry x="-563" y="481.5" width="100" height="100" as="geometry">
            <mxPoint x="140" y="596" as="sourcePoint" />
            <mxPoint x="200" y="661" as="targetPoint" />
            <Array as="points">
              <mxPoint x="180" y="631" />
              <mxPoint x="40" y="696" />
              <mxPoint x="235" y="736" />
              <mxPoint x="195" y="636" />
              <mxPoint x="195" y="626" />
              <mxPoint x="195" y="606" />
              <mxPoint x="165" y="646" />
              <mxPoint x="225" y="626" />
              <mxPoint x="255" y="636" />
              <mxPoint x="165" y="686" />
              <mxPoint x="205" y="726" />
              <mxPoint x="205" y="666" />
              <mxPoint x="255" y="606" />
              <mxPoint x="357" y="871.5" />
            </Array>
          </mxGeometry>
        </mxCell>
        <mxCell id="6m8-zw5Bx2EqO2fbQ1Oj-29" value="" style="edgeStyle=elbowEdgeStyle;elbow=vertical;strokeWidth=3;endArrow=block;endFill=1;fontStyle=1;strokeColor=#23445D;entryX=0.75;entryY=0;entryDx=0;entryDy=0;" parent="1" target="6m8-zw5Bx2EqO2fbQ1Oj-16" edge="1">
          <mxGeometry x="-113" y="382.5" width="100" height="100" as="geometry">
            <mxPoint x="630" y="476" as="sourcePoint" />
            <mxPoint x="680" y="562" as="targetPoint" />
            <Array as="points">
              <mxPoint x="658" y="476" />
              <mxPoint x="490" y="597" />
              <mxPoint x="685" y="637" />
              <mxPoint x="645" y="537" />
              <mxPoint x="645" y="527" />
              <mxPoint x="645" y="507" />
              <mxPoint x="615" y="547" />
              <mxPoint x="675" y="527" />
              <mxPoint x="705" y="537" />
              <mxPoint x="615" y="587" />
              <mxPoint x="655" y="627" />
              <mxPoint x="655" y="567" />
              <mxPoint x="705" y="507" />
              <mxPoint x="807" y="772.5" />
            </Array>
          </mxGeometry>
        </mxCell>
        <mxCell id="x_JUkwbYfYm52PP8X7CX-3" value="" style="rounded=1;whiteSpace=wrap;html=1;labelBackgroundColor=default;fontSize=16;fillColor=#FFFFFF;strokeColor=#36393d;strokeWidth=2;" parent="1" vertex="1">
          <mxGeometry x="171" y="126" width="837" height="112" as="geometry" />
        </mxCell>
        <mxCell id="x_JUkwbYfYm52PP8X7CX-1" value="Project Finance &#xa;Manager " style="rounded=1;fillColor=#ffcc99;strokeColor=#36393d;shadow=1;fontStyle=1;fontSize=14;strokeWidth=2;" parent="1" vertex="1">
          <mxGeometry x="252" y="406" width="195" height="56" as="geometry" />
        </mxCell>
        <mxCell id="x_JUkwbYfYm52PP8X7CX-4" value="Senior User (BCA)&#xa;City MayorÂ  Â  Â  &#xa;Deputy Mayor" style="rounded=1;fillColor=#6d8764;strokeColor=#3A5431;shadow=1;fontStyle=1;fontSize=14;fontColor=#ffffff;" parent="1" vertex="1">
          <mxGeometry x="732.5" y="142" width="240" height="70" as="geometry" />
        </mxCell>
        <mxCell id="x_JUkwbYfYm52PP8X7CX-5" value="Board&#xa;(GII, BCA, MiNT, MUID)" style="rounded=1;shadow=1;fontStyle=1;fontSize=16;fillColor=#a0522d;fontColor=#ffffff;strokeColor=#6D1F00;" parent="1" vertex="1">
          <mxGeometry x="434" y="137" width="250" height="80" as="geometry" />
        </mxCell>
        <mxCell id="iEAZW5QivC9z6IAEuazF-9" value="Senior Supplier (GII)&#xa;Director GeneralÂ  Â  Â  Â  &#xa;Deputy DirectorÂ  General" style="rounded=1;fillColor=#6d8764;strokeColor=#3A5431;shadow=1;fontStyle=1;fontSize=14;fontColor=#ffffff;" parent="1" vertex="1">
          <mxGeometry x="199.5" y="142" width="195" height="70" as="geometry" />
        </mxCell>
        <mxCell id="x_JUkwbYfYm52PP8X7CX-7" value="" style="edgeStyle=elbowEdgeStyle;elbow=vertical;strokeWidth=3;endArrow=block;endFill=1;fontStyle=1;dashed=1;strokeColor=#23445D;exitX=0.5;exitY=1;exitDx=0;exitDy=0;entryX=0.75;entryY=0;entryDx=0;entryDy=0;" parent="1" source="x_JUkwbYfYm52PP8X7CX-4" target="iEAZW5QivC9z6IAEuazF-4" edge="1">
          <mxGeometry x="398" y="336.5" width="100" height="100" as="geometry">
            <mxPoint x="1316" y="196" as="sourcePoint" />
            <mxPoint x="1470" y="420" as="targetPoint" />
            <Array as="points">
              <mxPoint x="994" y="280" />
              <mxPoint x="1078" y="266" />
              <mxPoint x="1484" y="252" />
              <mxPoint x="1470" y="252" />
              <mxPoint x="1414" y="252" />
              <mxPoint x="1596" y="196" />
              <mxPoint x="1506" y="196" />
              <mxPoint x="1516" y="126" />
              <mxPoint x="1576" y="96" />
              <mxPoint x="1386" y="196" />
              <mxPoint x="1396" y="186" />
              <mxPoint x="1726" y="176" />
              <mxPoint x="1716" y="186" />
              <mxPoint x="1846" y="331" />
              <mxPoint x="1796" y="331" />
              <mxPoint x="1666" y="331" />
            </Array>
          </mxGeometry>
        </mxCell>
        <mxCell id="x_JUkwbYfYm52PP8X7CX-8" value="Project Assurance" style="rounded=1;fillColor=#D5E8D4;strokeColor=#82b366;shadow=1;fontStyle=1;fontSize=14;gradientColor=#97d077;strokeWidth=3;" parent="1" vertex="1">
          <mxGeometry x="168" y="322" width="200" height="70" as="geometry" />
        </mxCell>
        <mxCell id="x_JUkwbYfYm52PP8X7CX-13" value="" style="edgeStyle=elbowEdgeStyle;elbow=vertical;strokeWidth=3;endArrow=block;endFill=1;fontStyle=1;strokeColor=#23445D;entryX=0.5;entryY=0;entryDx=0;entryDy=0;" parent="1" target="x_JUkwbYfYm52PP8X7CX-8" edge="1">
          <mxGeometry x="-211.25" y="122.5" width="100" height="100" as="geometry">
            <mxPoint x="616" y="238" as="sourcePoint" />
            <mxPoint x="319.25" y="329" as="targetPoint" />
            <Array as="points">
              <mxPoint x="448" y="280" />
              <mxPoint x="448" y="280" />
              <mxPoint x="490" y="280" />
            </Array>
          </mxGeometry>
        </mxCell>
        <mxCell id="x_JUkwbYfYm52PP8X7CX-16" value="" style="edgeStyle=elbowEdgeStyle;elbow=vertical;strokeWidth=3;endArrow=block;endFill=1;fontStyle=1;strokeColor=#23445D;entryX=0.75;entryY=0;entryDx=0;entryDy=0;exitX=0;exitY=0.5;exitDx=0;exitDy=0;" parent="1" source="iEAZW5QivC9z6IAEuazF-2" target="x_JUkwbYfYm52PP8X7CX-1" edge="1">
          <mxGeometry x="-666" y="400.5" width="100" height="100" as="geometry">
            <mxPoint x="450" y="336" as="sourcePoint" />
            <mxPoint x="402" y="448" as="targetPoint" />
            <Array as="points">
              <mxPoint x="434" y="364" />
              <mxPoint x="352" y="336" />
              <mxPoint x="92" y="555" />
              <mxPoint x="92" y="545" />
              <mxPoint x="92" y="525" />
              <mxPoint x="62" y="565" />
              <mxPoint x="122" y="545" />
              <mxPoint x="152" y="555" />
              <mxPoint x="62" y="605" />
              <mxPoint x="102" y="645" />
              <mxPoint x="102" y="585" />
              <mxPoint x="152" y="525" />
              <mxPoint x="254" y="790.5" />
            </Array>
          </mxGeometry>
        </mxCell>
        <mxCell id="x_JUkwbYfYm52PP8X7CX-18" value="" style="edgeStyle=elbowEdgeStyle;elbow=vertical;strokeWidth=3;endArrow=block;endFill=1;fontStyle=1;strokeColor=#23445D;entryX=0.5;entryY=0;entryDx=0;entryDy=0;" parent="1" edge="1">
          <mxGeometry x="-342" y="351.5" width="100" height="100" as="geometry">
            <mxPoint x="616" y="238" as="sourcePoint" />
            <mxPoint x="616" y="312" as="targetPoint" />
            <Array as="points">
              <mxPoint x="616" y="306" />
              <mxPoint x="436" y="446" />
              <mxPoint x="416" y="506" />
              <mxPoint x="416" y="496" />
              <mxPoint x="416" y="476" />
              <mxPoint x="386" y="516" />
              <mxPoint x="446" y="496" />
              <mxPoint x="476" y="506" />
              <mxPoint x="386" y="556" />
              <mxPoint x="426" y="596" />
              <mxPoint x="426" y="536" />
              <mxPoint x="476" y="476" />
              <mxPoint x="578" y="741.5" />
            </Array>
          </mxGeometry>
        </mxCell>
      </root>
    </mxGraphModel>
  </diagram>
  <diagram id="Zevij2jeNQy45XqrqZnl" name="Page-3">
    <mxGraphModel dx="1364" dy="805" grid="1" gridSize="10" guides="1" tooltips="1" connect="1" arrows="1" fold="1" page="1" pageScale="1" pageWidth="1100" pageHeight="850" math="0" shadow="0">
      <root>
        <mxCell id="0" />
        <mxCell id="1" parent="0" />
        <mxCell id="QLaL5f-uaUAkXWVSowyg-17" value="" style="rounded=1;whiteSpace=wrap;html=1;labelBackgroundColor=default;fontSize=16;fillColor=#579187;strokeColor=#56517e;strokeWidth=2;" parent="1" vertex="1">
          <mxGeometry x="370" y="600" width="430" height="140" as="geometry" />
        </mxCell>
        <mxCell id="QLaL5f-uaUAkXWVSowyg-22" value="PostgreSQL/PostGIS" style="rounded=1;fillColor=#ffff88;strokeColor=#36393d;shadow=1;fontStyle=1;fontSize=20;fontFamily=Times New Roman;strokeWidth=3;" parent="1" vertex="1">
          <mxGeometry x="380" y="640" width="410" height="90" as="geometry" />
        </mxCell>
        <mxCell id="QLaL5f-uaUAkXWVSowyg-25" value="" style="rounded=1;whiteSpace=wrap;html=1;labelBackgroundColor=default;fontSize=16;fillColor=#579187;strokeColor=#36393d;strokeWidth=2;" parent="1" vertex="1">
          <mxGeometry x="200" y="350" width="760" height="180" as="geometry" />
        </mxCell>
        <mxCell id="QLaL5f-uaUAkXWVSowyg-40" value="" style="rounded=1;shadow=1;fontStyle=1;fontSize=16;fillColor=#579187;strokeColor=#36393d;strokeWidth=3;" parent="1" vertex="1">
          <mxGeometry x="395" y="80" width="380" height="150" as="geometry" />
        </mxCell>
        <mxCell id="QLaL5f-uaUAkXWVSowyg-42" value="DjangoÂ " style="rounded=1;fillColor=#ffff88;strokeColor=#36393d;shadow=1;fontStyle=1;fontSize=20;strokeWidth=3;fontFamily=Times New Roman;" parent="1" vertex="1">
          <mxGeometry x="210" y="375" width="290" height="105" as="geometry" />
        </mxCell>
        <mxCell id="QLaL5f-uaUAkXWVSowyg-46" value="GeoserverÂ " style="rounded=1;fillColor=#ffff88;strokeColor=#36393d;shadow=1;fontStyle=1;fontSize=20;strokeWidth=3;fontFamily=Times New Roman;" parent="1" vertex="1">
          <mxGeometry x="670" y="380" width="280" height="100" as="geometry" />
        </mxCell>
        <mxCell id="QLaL5f-uaUAkXWVSowyg-47" value="" style="edgeStyle=elbowEdgeStyle;elbow=vertical;strokeWidth=3;endArrow=block;endFill=1;fontStyle=1;strokeColor=#23445D;" parent="1" edge="1">
          <mxGeometry x="-148" y="320.5" width="100" height="100" as="geometry">
            <mxPoint x="620" y="415" as="sourcePoint" />
            <mxPoint x="670" y="415" as="targetPoint" />
            <Array as="points">
              <mxPoint x="630" y="415" />
              <mxPoint x="610" y="475" />
              <mxPoint x="610" y="465" />
              <mxPoint x="610" y="445" />
              <mxPoint x="580" y="485" />
              <mxPoint x="640" y="465" />
              <mxPoint x="670" y="475" />
              <mxPoint x="580" y="525" />
              <mxPoint x="620" y="565" />
              <mxPoint x="620" y="505" />
              <mxPoint x="670" y="445" />
              <mxPoint x="772" y="710.5" />
            </Array>
          </mxGeometry>
        </mxCell>
        <mxCell id="QLaL5f-uaUAkXWVSowyg-48" value="" style="edgeStyle=elbowEdgeStyle;elbow=vertical;strokeWidth=3;endArrow=block;endFill=1;fontStyle=1;strokeColor=#23445D;" parent="1" edge="1">
          <mxGeometry x="-258" y="350.5" width="100" height="100" as="geometry">
            <mxPoint x="550" y="415" as="sourcePoint" />
            <mxPoint x="500" y="415" as="targetPoint" />
            <Array as="points">
              <mxPoint x="530" y="415" />
              <mxPoint x="500" y="505" />
              <mxPoint x="500" y="495" />
              <mxPoint x="500" y="475" />
              <mxPoint x="470" y="515" />
              <mxPoint x="530" y="495" />
              <mxPoint x="560" y="505" />
              <mxPoint x="470" y="555" />
              <mxPoint x="510" y="595" />
              <mxPoint x="510" y="535" />
              <mxPoint x="560" y="475" />
              <mxPoint x="662" y="740.5" />
            </Array>
          </mxGeometry>
        </mxCell>
        <mxCell id="QLaL5f-uaUAkXWVSowyg-49" value="" style="edgeStyle=elbowEdgeStyle;elbow=vertical;strokeWidth=3;endArrow=block;endFill=1;fontStyle=1;strokeColor=#23445D;" parent="1" edge="1">
          <mxGeometry x="-258" y="380.5" width="100" height="100" as="geometry">
            <mxPoint x="550" y="445" as="sourcePoint" />
            <mxPoint x="500" y="445" as="targetPoint" />
            <Array as="points">
              <mxPoint x="530" y="445" />
              <mxPoint x="500" y="535" />
              <mxPoint x="500" y="525" />
              <mxPoint x="500" y="505" />
              <mxPoint x="470" y="545" />
              <mxPoint x="530" y="525" />
              <mxPoint x="560" y="535" />
              <mxPoint x="470" y="585" />
              <mxPoint x="510" y="625" />
              <mxPoint x="510" y="565" />
              <mxPoint x="560" y="505" />
              <mxPoint x="662" y="770.5" />
            </Array>
          </mxGeometry>
        </mxCell>
        <mxCell id="QLaL5f-uaUAkXWVSowyg-50" value="" style="edgeStyle=elbowEdgeStyle;elbow=vertical;strokeWidth=3;endArrow=block;endFill=1;fontStyle=1;strokeColor=#23445D;" parent="1" edge="1">
          <mxGeometry x="-148" y="350.5" width="100" height="100" as="geometry">
            <mxPoint x="620" y="445" as="sourcePoint" />
            <mxPoint x="670" y="445" as="targetPoint" />
            <Array as="points">
              <mxPoint x="630" y="445" />
              <mxPoint x="610" y="505" />
              <mxPoint x="610" y="495" />
              <mxPoint x="610" y="475" />
              <mxPoint x="580" y="515" />
              <mxPoint x="640" y="495" />
              <mxPoint x="670" y="505" />
              <mxPoint x="580" y="555" />
              <mxPoint x="620" y="595" />
              <mxPoint x="620" y="535" />
              <mxPoint x="670" y="475" />
              <mxPoint x="772" y="740.5" />
            </Array>
          </mxGeometry>
        </mxCell>
        <mxCell id="QLaL5f-uaUAkXWVSowyg-51" value="&lt;span style=&quot;background-color: rgb(87 , 145 , 135)&quot;&gt;&lt;font color=&quot;#ffffff&quot;&gt;OGC&lt;/font&gt;&lt;/span&gt;" style="text;whiteSpace=wrap;html=1;fontSize=14;" parent="1" vertex="1">
          <mxGeometry x="560" y="400" width="60" height="30" as="geometry" />
        </mxCell>
        <mxCell id="QLaL5f-uaUAkXWVSowyg-57" value="&lt;font color=&quot;#ffffff&quot; face=&quot;Times New Roman&quot;&gt;&lt;b style=&quot;background-color: rgb(87 , 145 , 135)&quot;&gt;SQL/JDBC&lt;/b&gt;&lt;/font&gt;" style="text;whiteSpace=wrap;html=1;fontSize=14;" parent="1" vertex="1">
          <mxGeometry x="550" y="550" width="80" height="33" as="geometry" />
        </mxCell>
        <mxCell id="QLaL5f-uaUAkXWVSowyg-61" value="React, OpenLayers / Leaflet" style="rounded=1;fillColor=#ffff88;strokeColor=#36393d;shadow=1;fontStyle=1;fontSize=20;fontFamily=Times New Roman;strokeWidth=4;" parent="1" vertex="1">
          <mxGeometry x="400" y="120" width="370" height="100" as="geometry" />
        </mxCell>
        <mxCell id="QLaL5f-uaUAkXWVSowyg-63" value="&lt;b style=&quot;background-color: rgb(87 , 145 , 135)&quot;&gt;&lt;font color=&quot;#ffffff&quot; face=&quot;Times New Roman&quot;&gt;REST API&lt;/font&gt;&lt;/b&gt;" style="text;whiteSpace=wrap;html=1;fontSize=14;" parent="1" vertex="1">
          <mxGeometry x="555" y="320" width="70" height="30" as="geometry" />
        </mxCell>
        <mxCell id="QLaL5f-uaUAkXWVSowyg-67" value="" style="edgeStyle=elbowEdgeStyle;elbow=vertical;strokeWidth=3;endArrow=block;endFill=1;fontStyle=1;strokeColor=#23445D;entryX=0.5;entryY=1;entryDx=0;entryDy=0;" parent="1" target="QLaL5f-uaUAkXWVSowyg-40" edge="1">
          <mxGeometry x="-162.9199999999995" y="195.5" width="100" height="100" as="geometry">
            <mxPoint x="585" y="350" as="sourcePoint" />
            <mxPoint x="570.0000000000003" y="209.99999999999994" as="targetPoint" />
            <Array as="points">
              <mxPoint x="600" y="340" />
              <mxPoint x="570.0800000000003" y="309.99999999999994" />
              <mxPoint x="595.0800000000005" y="350" />
              <mxPoint x="595.0800000000005" y="340" />
              <mxPoint x="595.0800000000005" y="320" />
              <mxPoint x="565.0800000000005" y="360" />
              <mxPoint x="625.0800000000005" y="340" />
              <mxPoint x="655.0800000000005" y="350" />
              <mxPoint x="565.0800000000005" y="400" />
              <mxPoint x="605.0800000000005" y="440" />
              <mxPoint x="605.0800000000005" y="380" />
              <mxPoint x="655.0800000000005" y="320" />
              <mxPoint x="757.0800000000005" y="585.5" />
            </Array>
          </mxGeometry>
        </mxCell>
        <mxCell id="QLaL5f-uaUAkXWVSowyg-70" value="" style="edgeStyle=elbowEdgeStyle;elbow=vertical;strokeWidth=3;endArrow=block;endFill=1;fontStyle=1;strokeColor=#23445D;startArrow=none;" parent="1" source="QLaL5f-uaUAkXWVSowyg-66" edge="1">
          <mxGeometry x="-207.9199999999995" y="195.5" width="100" height="100" as="geometry">
            <mxPoint x="540" y="350" as="sourcePoint" />
            <mxPoint x="540" y="230" as="targetPoint" />
            <Array as="points">
              <mxPoint x="550.0800000000005" y="340" />
              <mxPoint x="550.0800000000005" y="320" />
              <mxPoint x="520.0800000000005" y="360" />
              <mxPoint x="580.0800000000005" y="340" />
              <mxPoint x="610.0800000000005" y="350" />
              <mxPoint x="520.0800000000005" y="400" />
              <mxPoint x="560.0800000000005" y="440" />
              <mxPoint x="560.0800000000005" y="380" />
              <mxPoint x="610.0800000000005" y="320" />
              <mxPoint x="712.0800000000005" y="585.5" />
            </Array>
          </mxGeometry>
        </mxCell>
        <mxCell id="QLaL5f-uaUAkXWVSowyg-71" value="WWW" style="ellipse;shape=cloud;whiteSpace=wrap;html=1;align=center;labelBackgroundColor=#66B2FF;sketch=1;fontSize=14;fontColor=#FFFFFF;strokeWidth=1;fillColor=#E8E8E8;gradientColor=#CC6600;" parent="1" vertex="1">
          <mxGeometry x="510" y="250" width="120" height="70" as="geometry" />
        </mxCell>
        <mxCell id="QLaL5f-uaUAkXWVSowyg-79" value="&lt;span style=&quot;font-size: 16px ; background-color: rgb(87 , 145 , 135)&quot;&gt;&lt;font style=&quot;font-size: 16px&quot; color=&quot;#ffffff&quot;&gt;&lt;b&gt;Create and manage users groups&lt;/b&gt;&lt;/font&gt;&lt;/span&gt;" style="text;whiteSpace=wrap;html=1;fontSize=16;" parent="1" vertex="1">
          <mxGeometry x="290" y="480" width="170" height="30" as="geometry" />
        </mxCell>
        <mxCell id="QLaL5f-uaUAkXWVSowyg-80" value="&lt;span style=&quot;font-size: 16px&quot;&gt;&lt;span style=&quot;background-color: rgb(87 , 145 , 135)&quot;&gt;&lt;font color=&quot;#ffffff&quot;&gt;&lt;b&gt;Store, retrieve and transactions on spatial data&lt;br style=&quot;font-size: 16px&quot;&gt;&lt;/b&gt;&lt;/font&gt;&lt;/span&gt;&lt;br style=&quot;font-size: 16px&quot;&gt;&lt;/span&gt;" style="text;whiteSpace=wrap;html=1;fontSize=16;" parent="1" vertex="1">
          <mxGeometry x="700" y="480" width="250" height="30" as="geometry" />
        </mxCell>
        <mxCell id="QLaL5f-uaUAkXWVSowyg-81" value="&lt;span style=&quot;font-size: 17px&quot;&gt;&lt;span style=&quot;background-color: rgb(87 , 145 , 135)&quot;&gt;&lt;font color=&quot;#ffffff&quot;&gt;&lt;b&gt;Spatial database&lt;/b&gt;&lt;/font&gt;&lt;/span&gt;&lt;br style=&quot;font-size: 17px&quot;&gt;&lt;/span&gt;" style="text;whiteSpace=wrap;html=1;fontSize=17;" parent="1" vertex="1">
          <mxGeometry x="390" y="600" width="140" height="30" as="geometry" />
        </mxCell>
        <mxCell id="QLaL5f-uaUAkXWVSowyg-82" value="&lt;span style=&quot;font-size: 16px&quot;&gt;&lt;font style=&quot;font-size: 16px&quot;&gt;&lt;span style=&quot;background-color: rgb(87 , 145 , 135)&quot;&gt;&lt;font color=&quot;#ffffff&quot;&gt;&lt;b&gt;Web browser&lt;br style=&quot;font-size: 16px&quot;&gt;&lt;/b&gt;&lt;/font&gt;&lt;/span&gt;&lt;br style=&quot;font-size: 16px&quot;&gt;&lt;/font&gt;&lt;/span&gt;" style="text;whiteSpace=wrap;html=1;fontSize=16;" parent="1" vertex="1">
          <mxGeometry x="430" y="90" width="120" height="30" as="geometry" />
        </mxCell>
        <mxCell id="QLaL5f-uaUAkXWVSowyg-86" value="" style="edgeStyle=elbowEdgeStyle;elbow=vertical;strokeWidth=3;endArrow=block;endFill=1;fontStyle=1;strokeColor=#23445D;entryX=0.5;entryY=1;entryDx=0;entryDy=0;" parent="1" edge="1">
          <mxGeometry x="-193.4199999999995" y="505.5" width="100" height="100" as="geometry">
            <mxPoint x="584.5" y="600" as="sourcePoint" />
            <mxPoint x="584.5" y="530" as="targetPoint" />
            <Array as="points">
              <mxPoint x="585" y="590" />
              <mxPoint x="624.5800000000005" y="660" />
              <mxPoint x="534.5800000000005" y="710" />
              <mxPoint x="574.5800000000005" y="750" />
              <mxPoint x="574.5800000000005" y="690" />
              <mxPoint x="624.5800000000005" y="630" />
              <mxPoint x="726.5800000000005" y="895.5" />
            </Array>
          </mxGeometry>
        </mxCell>
        <mxCell id="QLaL5f-uaUAkXWVSowyg-66" value="&lt;b style=&quot;background-color: rgb(87 , 145 , 135)&quot;&gt;&lt;font face=&quot;Times New Roman&quot;&gt;WMS&lt;/font&gt;&lt;/b&gt;" style="text;whiteSpace=wrap;html=1;fontSize=14;fontColor=#FFFFFF;" parent="1" vertex="1">
          <mxGeometry x="520" y="310" width="40" height="30" as="geometry" />
        </mxCell>
        <mxCell id="QLaL5f-uaUAkXWVSowyg-90" value="" style="edgeStyle=elbowEdgeStyle;elbow=vertical;strokeWidth=3;endArrow=none;endFill=1;fontStyle=1;strokeColor=#23445D;" parent="1" target="QLaL5f-uaUAkXWVSowyg-66" edge="1">
          <mxGeometry x="-207.9199999999995" y="195.5" width="100" height="100" as="geometry">
            <mxPoint x="540" y="350" as="sourcePoint" />
            <mxPoint x="540" y="230" as="targetPoint" />
            <Array as="points">
              <mxPoint x="525.0800000000003" y="309.99999999999994" />
              <mxPoint x="550.0800000000005" y="350" />
            </Array>
          </mxGeometry>
        </mxCell>
        <mxCell id="QLaL5f-uaUAkXWVSowyg-95" value="&lt;span style=&quot;background-color: rgb(87 , 145 , 135)&quot;&gt;&lt;font color=&quot;#ffffff&quot;&gt;REST&lt;/font&gt;&lt;/span&gt;" style="text;whiteSpace=wrap;html=1;fontSize=14;" parent="1" vertex="1">
          <mxGeometry x="560" y="430" width="60" height="30" as="geometry" />
        </mxCell>
      </root>
    </mxGraphModel>
  </diagram>
  <diagram id="vBCC8fz1-cJK5UCuz0k0" name="Page-4">
    <mxGraphModel dx="1364" dy="805" grid="1" gridSize="10" guides="1" tooltips="1" connect="1" arrows="1" fold="1" page="1" pageScale="1" pageWidth="1100" pageHeight="850" math="0" shadow="0">
      <root>
        <mxCell id="0" />
        <mxCell id="1" parent="0" />
      </root>
    </mxGraphModel>
  </diagram>
  <diagram id="RP8RIo6ru0rCyM5ZutfX" name="Page-5">
    <mxGraphModel dx="1364" dy="805" grid="1" gridSize="10" guides="1" tooltips="1" connect="1" arrows="1" fold="1" page="1" pageScale="1" pageWidth="1100" pageHeight="850" math="0" shadow="0">
      <root>
        <mxCell id="0" />
        <mxCell id="1" parent="0" />
      </root>
    </mxGraphModel>
  </diagram>
</mxfile>
